<?xml version="1.0" encoding="UTF-8" standalone="no"?>
<!-- Created with Inkscape (http://www.inkscape.org/) -->

<svg
   xmlns:dc="http://purl.org/dc/elements/1.1/"
   xmlns:cc="http://creativecommons.org/ns#"
   xmlns:rdf="http://www.w3.org/1999/02/22-rdf-syntax-ns#"
   xmlns:svg="http://www.w3.org/2000/svg"
   xmlns="http://www.w3.org/2000/svg"
   xmlns:sodipodi="http://sodipodi.sourceforge.net/DTD/sodipodi-0.dtd"
   xmlns:inkscape="http://www.inkscape.org/namespaces/inkscape"
   width="800"
   height="600"
   viewBox="0 0 800 600"
   id="Layer_1"
   xml:space="preserve"
   sodipodi:docname="Kim_EtAl_Quantum_Eraser.svg"
   version="1.1"
   inkscape:version="0.48.2 r9819"><sodipodi:namedview
   pagecolor="#ffffff"
   bordercolor="#666666"
   borderopacity="1"
   objecttolerance="10"
   gridtolerance="10"
   guidetolerance="10"
   inkscape:pageopacity="0"
   inkscape:pageshadow="2"
   inkscape:window-width="1600"
   inkscape:window-height="800"
   id="namedview3160"
   showgrid="false"
   inkscape:zoom="1"
   inkscape:cx="542.12205"
   inkscape:cy="361.50843"
   inkscape:window-x="1460"
   inkscape:window-y="-6"
   inkscape:window-maximized="0"
   inkscape:current-layer="Layer_1"
   inkscape:snap-bbox="true"
   inkscape:bbox-paths="true" /><metadata
   id="metadata174"><rdf:RDF><cc:Work
       rdf:about=""><dc:format>image/svg+xml</dc:format><dc:type
         rdf:resource="http://purl.org/dc/dcmitype/StillImage" /><dc:title /></cc:Work></rdf:RDF></metadata><defs
   id="defs331"><inkscape:path-effect
     effect="spiro"
     id="path-effect3994"
     is_visible="true" /><inkscape:path-effect
     effect="spiro"
     id="path-effect3990"
     is_visible="true" /><inkscape:path-effect
     effect="spiro"
     id="path-effect9080"
     is_visible="true" /><inkscape:path-effect
     effect="spiro"
     id="path-effect8888"
     is_visible="true" /><marker
     inkscape:stockid="Arrow2Lstart"
     orient="auto"
     refY="0.0"
     refX="0.0"
     id="Arrow2Lstart"
     style="overflow:visible"><path
       id="path3983"
       style="font-size:12.0;fill-rule:evenodd;stroke-width:0.62500000;stroke-linejoin:round"
       d="M 8.7185878,4.0337352 L -2.2072895,0.016013256 L 8.7185884,-4.0017078 C 6.9730900,-1.6296469 6.9831476,1.6157441 8.7185878,4.0337352 z"
       transform="scale(1.1) translate(1,0)" /></marker><marker
     inkscape:stockid="Arrow1Mend"
     orient="auto"
     refY="0.0"
     refX="0.0"
     id="Arrow1Mend"
     style="overflow:visible;"><path
       id="path3974"
       d="M 0.0,0.0 L 5.0,-5.0 L -12.5,0.0 L 5.0,5.0 L 0.0,0.0 z"
       style="fill-rule:evenodd;stroke:#000000;stroke-width:1.0pt;marker-start:none;"
       transform="scale(0.4) rotate(180) translate(10,0)" /></marker><marker
     inkscape:stockid="Arrow1Mstart"
     orient="auto"
     refY="0.0"
     refX="0.0"
     id="Arrow1Mstart"
     style="overflow:visible"><path
       id="path3971"
       d="M 0.0,0.0 L 5.0,-5.0 L -12.5,0.0 L 5.0,5.0 L 0.0,0.0 z"
       style="fill-rule:evenodd;stroke:#000000;stroke-width:1.0pt;marker-start:none"
       transform="scale(0.4) translate(10,0)" /></marker><marker
     inkscape:stockid="Arrow1Lend"
     orient="auto"
     refY="0.0"
     refX="0.0"
     id="Arrow1Lend"
     style="overflow:visible;"><path
       id="path3962"
       d="M 0.0,0.0 L 5.0,-5.0 L -12.5,0.0 L 5.0,5.0 L 0.0,0.0 z"
       style="fill-rule:evenodd;stroke:#000000;stroke-width:1.0pt;marker-start:none;"
       transform="scale(0.8) rotate(180) translate(12.5,0)" /></marker></defs>
<polygon
   points="350.953,189.772 317.398,267.92 266.261,197.543 266.261,197.543"
   id="polygon3"
   style="fill:#ffffff;stroke:#000000" />
<line
   x1="93.793999"
   y1="109.088"
   x2="303.20599"
   y2="193.79401"
   id="line5"
   style="fill:none;stroke:#f20000;stroke-width:3;stroke-miterlimit:4;stroke-dasharray:none"
   stroke="#F20000"
   fill="none" />
<line
   fill="none"
   stroke="#F20000"
   x1="93.793999"
   y1="109.088"
   x2="206.735"
   y2="70.264999"
   id="line7"
   style="fill:none;stroke:#f20000;stroke-width:3;stroke-miterlimit:4;stroke-dasharray:none" />
<line
   fill="none"
   stroke="#08FFFF"
   x1="287.91199"
   y1="229.088"
   x2="93.793999"
   y2="146.735"
   id="line9"
   style="fill:none;stroke:#08ffff;stroke-width:3;stroke-miterlimit:4;stroke-dasharray:none" />
<line
   fill="none"
   stroke="#05FFFF"
   x1="287.91199"
   y1="229.088"
   x2="543.20599"
   y2="439.677"
   id="line11"
   style="fill:none;stroke:#05ffff;stroke-width:3;stroke-miterlimit:4;stroke-dasharray:none" />
<line
   x1="93.793999"
   y1="146.735"
   x2="214.97099"
   y2="105.559"
   id="line13"
   style="fill:none;stroke:#03ffff;stroke-width:3;stroke-miterlimit:4;stroke-dasharray:none"
   stroke="#03FFFF"
   fill="none" />
<ellipse
   cx="217.314"
   cy="85.559998"
   rx="29.999001"
   ry="5.882"
   transform="matrix(-0.1968,-0.9804,0.9804,-0.1968,176.1969,315.4619)"
   id="ellipse15"
   style="fill:#f5ff1f;stroke:#f3a200;stroke-opacity:1" />
<polygon
   points="508.927,458.041 514.149,474.188 587.313,430.324 582.089,414.18 582.089,414.18"
   id="rect3406"
   style="fill:#93a680;fill-opacity:1;stroke:#000000;stroke-width:1.00979996" />
<path
   d=""
   id="path18" />
<path
   d=""
   id="path20" />
<line
   fill="none"
   x1="591.44098"
   y1="149.088"
   x2="682.02899"
   y2="210.265"
   id="line22"
   style="fill:none" />

<path
   d=""
   id="path50" />
<path
   d=""
   id="path52" />
<line
   fill="none"
   x1="215.599"
   y1="69.338997"
   x2="459.62399"
   y2="40.571999"
   id="line54"
   style="fill:none" />
<line
   fill="none"
   stroke="#05FFFF"
   x1="225.47501"
   y1="102.673"
   x2="453.58801"
   y2="29.605"
   id="line56"
   style="fill:none;stroke:#05ffff;stroke-width:3;stroke-miterlimit:4;stroke-dasharray:none" />


<line
   fill="none"
   stroke="#0AFFFF"
   x1="540.28998"
   y1="434.771"
   x2="539.35901"
   y2="126.44"
   id="line110"
   style="fill:none;stroke:#0affff;stroke-width:3;stroke-miterlimit:4;stroke-dasharray:none" />
<polygon
   points="673.008,225.231 673.008,225.231 625.178,154.601 609.343,160.707 657.176,231.337"
   id="rect3406_1_"
   style="fill:#acb4a4;fill-opacity:1;stroke:#000000;stroke-width:1.00979996"
   transform="translate(-1.5,0)" />
<g
   id="g113">
	<g
   id="g115">
		<polygon
   points="302.164,560.218 305.742,574.737 305.62,574.944 306.242,575.256 312.22,565.242 311.488,564.877 311.488,564.877"
   id="polygon117"
   style="fill:#070101" />
		<polygon
   points="305.62,574.944 305.742,574.737 302.164,560.218 292.771,555.524 292.271,556.36 286.793,565.536 286.793,565.536"
   id="polygon119"
   style="fill:#070101" />
		<polygon
   points="286.793,565.536 292.271,556.36 288.62,541.536 279.797,537.126 279.797,537.126"
   id="polygon121"
   style="fill:#070101" />
		<polygon
   points="311.488,564.877 304.771,537.59 299.245,546.845 298.822,546.633 302.164,560.218 302.164,560.218"
   id="polygon123"
   style="fill:#070101" />
		<polygon
   points="299.245,546.845 304.771,537.59 305.224,536.829 285.775,527.111 289.425,541.938 298.822,546.633 298.822,546.633"
   id="polygon125"
   style="fill:#070101" />
		<polygon
   points="289.425,541.938 285.775,527.111 285.277,527.95 288.62,541.536 288.62,541.536"
   id="polygon127"
   style="fill:#070101" />
		<polygon
   points="288.62,541.536 285.277,527.95 279.797,537.126 279.797,537.126"
   id="polygon129"
   style="fill:#070101" />
		<polygon
   points="288.915,541.29 292.564,556.115 291.979,556.606 288.331,541.782 284.982,528.195 285.567,527.705 285.567,527.705"
   id="polygon131"
   style="fill:#000003" />
		<path
   d="m 279.945,537.813 6.996,28.412 c 0.02,0.077 -0.033,0.193 -0.11,0.263 -0.081,0.065 -0.163,0.062 -0.182,-0.017 l -6.996,-28.412 c -0.02,-0.075 0.031,-0.192 0.11,-0.262 0.082,-0.067 0.163,-0.06 0.182,0.016"
   id="path133" />
		<path
   d="m 304.868,537.277 0.048,0.188 6.72,27.29 0.23,0.932 c 0.019,0.078 -0.03,0.194 -0.111,0.264 -0.08,0.066 -0.161,0.061 -0.18,-0.015 l -0.231,-0.937 -6.72,-27.287 -0.047,-0.188 c -0.016,-0.076 0.033,-0.193 0.113,-0.263 0.078,-0.068 0.16,-0.06 0.178,0.016 z"
   id="path135" />
		<path
   d="m 298.891,546.203 0.076,0.307 3.344,13.585 3.577,14.523 c 0.018,0.075 -0.029,0.19 -0.111,0.259 -0.081,0.067 -0.161,0.061 -0.18,-0.017 l -3.578,-14.521 -3.342,-13.584 -0.078,-0.305 c -0.019,-0.075 0.032,-0.195 0.112,-0.261 0.081,-0.068 0.161,-0.06 0.18,0.014 z"
   id="path137" />
	</g>
</g>

<polygon
   points="412.258,291.419 409.541,376.682 425.946,381.027 428.661,295.766 412.258,291.419"
   id="rect3398"
   style="fill:#7fff00;fill-opacity:0.53289998;stroke:#000000;stroke-width:1.00979996"
   transform="matrix(0.99026806,-0.13917311,0.13917311,0.99026806,-42.714526,61.599789)" />

<line
   fill="none"
   stroke="#FF0000"
   stroke-width="1.0098"
   x1="632.07898"
   y1="199.104"
   x2="421.771"
   y2="432.30301"
   id="line167"
   style="fill:none;stroke:#ff0000;stroke-width:3;stroke-miterlimit:4;stroke-dasharray:none" />
<line
   x1="303.20599"
   y1="193.09407"
   x2="632.07898"
   y2="200.30408"
   id="line169"
   style="fill:none;stroke:#f20000;stroke-width:3;stroke-miterlimit:4;stroke-dasharray:none" />
<line
   x1="409.53711"
   y1="330.9549"
   x2="302.96005"
   y2="536.20111"
   id="line171"
   style="fill:none;stroke:#08ffff;stroke-width:2.7777679;stroke-miterlimit:4;stroke-dasharray:none" />
<line
   fill="none"
   stroke="#000000"
   stroke-width="1.0098"
   x1="409.42599"
   y1="331.06601"
   x2="413.13"
   y2="332.30301"
   id="line173"
   style="fill:none;stroke:#000000;stroke-width:1.00979996" />
<line
   fill="none"
   stroke="#0DFFFF"
   stroke-width="1.0098"
   x1="343.99399"
   y1="456.99399"
   x2="345.228"
   y2="458.229"
   id="line175"
   style="fill:none;stroke:#0dffff;stroke-width:1.00979996" />
<polygon
   points="445.679,226.848 457.622,238.903 503.141,166.758 491.198,154.704 491.198,154.704"
   id="rect3398_2_"
   style="fill:#7fff00;fill-opacity:0.53289998;stroke:#000000;stroke-width:1.00979996" />
<line
   fill="none"
   stroke="#FF0000"
   stroke-width="1.0098"
   x1="462.513"
   y1="195.265"
   x2="463.74701"
   y2="136.006"
   id="line178"
   style="fill:none;stroke:#ff0000;stroke-width:3;stroke-miterlimit:4;stroke-dasharray:none" />
<line
   fill="none"
   stroke="#000000"
   stroke-width="1.0098"
   x1="463.74701"
   y1="136.006"
   x2="463.74701"
   y2="122.92"
   id="line180"
   style="fill:none;stroke:#000000;stroke-width:1.00979996" />
<text
   transform="translate(193.376,52.0557)"
   id="text182"
   style="font-size:16.50009918px;font-family:Bitstream Vera Sans,sans-serif">Lens</text>












<rect
   width="18.518999"
   height="75.308998"
   x="73.624001"
   y="87.858002"
   id="rect186"
   style="fill:none;stroke:#28005f" />
<rect
   width="18.518999"
   height="75.308998"
   x="74.858002"
   y="92.487"
   id="rect188"
   style="fill:none" />
<g
   id="g190"
   transform="translate(-2,0)">
	<line
   x1="74.858002"
   y1="106.376"
   x2="93.375999"
   y2="106.376"
   id="line192"
   style="fill:none;stroke:#28005f" />
	<line
   x1="75.328003"
   y1="112.018"
   x2="93.846001"
   y2="112.018"
   id="line194"
   style="fill:none;stroke:#28005f" />
</g>
<g
   id="g196"
   transform="translate(-2,0)">
	<line
   x1="74.264999"
   y1="144.586"
   x2="92.783997"
   y2="144.586"
   id="line198"
   style="fill:none;stroke:#28005f" />
	<line
   x1="74.735001"
   y1="150.228"
   x2="93.252998"
   y2="150.228"
   id="line200"
   style="fill:none;stroke:#28005f" />
</g>
<rect
   width="8.6420002"
   height="32.254002"
   x="41.523998"
   y="112.394"
   id="rect202"
   style="stroke:#28005f" />
<rect
   width="8.6420002"
   height="103.703"
   x="40.907001"
   y="153.005"
   id="rect204"
   style="stroke:#28005f" />
<rect
   width="8.6420002"
   height="95.060997"
   x="41.82"
   y="8.1289997"
   id="rect206"
   style="stroke:#28005f" />
<path
   d="m 564.981,352.057 c -0.411,-0.412 -0.823,-0.824 -1.234,-1.234"
   id="path208"
   style="fill:none" />
<g
   id="g210">
	<text
   transform="translate(458.6533,67.3486)"
   id="text212"
   style="font-size:16.50009918px;font-family:Bitstream Vera Sans,sans-serif">D</text>










	<text
   transform="translate(468.8398,72.4414)"
   id="text214"
   style="font-size:13.75010014px;font-family:Bitstream Vera Sans,sans-serif">0</text>










</g>
<g
   id="g216">
	<text
   transform="translate(433.9639,473.8145)"
   id="text218"
   style="font-size:16.50009918px;font-family:Bitstream Vera Sans,sans-serif">D</text>










	<text
   transform="translate(444.1484,477.21)"
   id="text220"
   style="font-size:13.75010014px;font-family:Bitstream Vera Sans,sans-serif">1</text>










</g>
<g
   id="g222">
	<text
   transform="translate(566.0615,129.1396)"
   id="text224"
   style="font-size:16.50009918px;font-family:Bitstream Vera Sans,sans-serif">D</text>










	<text
   transform="translate(576.2471,134.2314)"
   id="text226"
   style="font-size:13.75010014px;font-family:Bitstream Vera Sans,sans-serif">2</text>










</g>
<g
   id="g228">
	<text
   transform="translate(313.207,557.0703)"
   id="text230"
   style="font-size:16.50009918px;font-family:Bitstream Vera Sans,sans-serif">D</text>










	<text
   transform="translate(321.6953,565.5576)"
   id="text232"
   style="font-size:13.75010014px;font-family:Bitstream Vera Sans,sans-serif">3</text>










</g>
<g
   id="g234">
	<text
   transform="translate(486.5781,128.5195)"
   id="text236"
   style="font-size:16.50009918px;font-family:Bitstream Vera Sans,sans-serif">D</text>










	<text
   transform="translate(497.3105,132.8994)"
   id="text238"
   style="font-size:13.75010014px;font-family:Bitstream Vera Sans,sans-serif">4</text>










</g>
<line
   fill="none"
   x1="225.476"
   y1="61.928001"
   x2="440.29099"
   y2="10.076"
   id="line240"
   style="fill:none" />

<line
   fill="none"
   stroke="#17FF05"
   x1="752.63702"
   y1="23.657"
   x2="751.401"
   y2="23.657"
   id="line244"
   style="fill:none;stroke:#17ff05" />









<rect
   width="127.161"
   height="83.950996"
   x="669.91998"
   y="261.92801"
   id="rect248"
   style="fill:none;stroke:#001eff" />
<text
   transform="scale(0.97722055,1.0233104)"
   id="text250"
   style="font-size:20.52163124px;font-family:Bitstream Vera Sans,sans-serif"
   x="688.1687"
   y="287.32864">Coincidence</text>










<text
   transform="translate(672.4395,319.2266)"
   id="text252"
   style="font-size:21px;font-family:Bitstream Vera Sans,sans-serif">Counter</text>










<ellipse
   cx="721.771"
   cy="353.28601"
   rx="6.1739998"
   ry="7.4070001"
   id="ellipse254"
   style="fill:#001eff;stroke:#001eff" />
<ellipse
   cx="748.93298"
   cy="353.28601"
   rx="6.1729999"
   ry="7.4070001"
   id="ellipse256"
   style="fill:#001eff;stroke:#001eff" />
<ellipse
   cx="772.39001"
   cy="353.28601"
   rx="6.1729999"
   ry="7.4070001"
   id="ellipse258"
   style="fill:#001eff;stroke:#001eff" />
<ellipse
   cx="692.67401"
   cy="353.28601"
   rx="6.1729999"
   ry="7.4070001"
   id="ellipse260"
   style="fill:#001eff;stroke:#001eff" />
<ellipse
   cx="734.11798"
   cy="254.521"
   rx="6.1729999"
   ry="7.4070001"
   id="ellipse262"
   style="fill:#001eff;stroke:#001eff" />
<line
   fill="none"
   stroke="#001EFF"
   x1="462.513"
   y1="23.657"
   x2="731.64801"
   y2="23.657"
   id="line264"
   style="fill:none;stroke:#001eff" />
<line
   fill="none"
   stroke="#001EFF"
   x1="732.88397"
   y1="23.657"
   x2="732.88397"
   y2="247.114"
   id="line266"
   style="fill:none;stroke:#001eff" />
<line
   fill="none"
   stroke="#001EFF"
   x1="771.67401"
   y1="416.24899"
   x2="771.67401"
   y2="555.75598"
   id="line268"
   style="fill:none;stroke:#001eff" />
<line
   fill="none"
   stroke="#001EFF"
   x1="771.67401"
   y1="360.69299"
   x2="771.67401"
   y2="416.24899"
   id="line270"
   style="fill:none;stroke:#001eff" />
<line
   fill="none"
   stroke="#001EFF"
   x1="743.99402"
   y1="506.37299"
   x2="413.30301"
   y2="506.37299"
   id="line272"
   style="fill:none;stroke:#001eff" />
<line
   fill="none"
   stroke="#001EFF"
   x1="413.30301"
   y1="506.37299"
   x2="413.30301"
   y2="458.22501"
   id="line274"
   style="fill:none;stroke:#001eff" />
<line
   fill="none"
   stroke="#001EFF"
   x1="745.229"
   y1="359.45901"
   x2="745.229"
   y2="505.138"
   id="line276"
   style="fill:none;stroke:#001eff" />
<line
   fill="none"
   stroke="#001EFF"
   x1="325.47601"
   y1="555.75598"
   x2="773.62402"
   y2="555.75598"
   id="line278"
   style="fill:none;stroke:#001eff" />
<line
   fill="none"
   x1="653.078"
   y1="259.09201"
   x2="653.078"
   y2="364.08701"
   id="line280"
   style="fill:none" />
<line
   fill="none"
   x1="636.57898"
   y1="257.59201"
   x2="636.57898"
   y2="362.58701"
   id="line282"
   style="fill:none" />
<line
   fill="none"
   x1="650.078"
   y1="259.09201"
   x2="650.078"
   y2="364.086"
   id="line284"
   style="fill:none" />
<line
   fill="none"
   x1="464.08801"
   y1="113.6"
   x2="464.08801"
   y2="83.600998"
   id="line286"
   style="fill:none" />
<line
   fill="none"
   stroke="#001EFF"
   x1="554.08197"
   y1="113.6"
   x2="707.07501"
   y2="113.6"
   id="line288"
   style="fill:none;stroke:#001eff" />
<line
   fill="none"
   stroke="#001EFF"
   x1="464.08801"
   y1="113.6"
   x2="464.08801"
   y2="83.600998"
   id="line290"
   style="fill:none;stroke:#001eff" />
<line
   fill="none"
   stroke="#001EFF"
   x1="464.08801"
   y1="83.600998"
   x2="717.57501"
   y2="83.600998"
   id="line292"
   style="fill:none;stroke:#001eff" />
<line
   fill="none"
   stroke="#001EFF"
   x1="717.57501"
   y1="83.600998"
   x2="717.57501"
   y2="253.093"
   id="line294"
   style="fill:none;stroke:#001eff" />
<line
   fill="none"
   stroke="#001EFF"
   x1="707.07501"
   y1="113.6"
   x2="707.07501"
   y2="239.593"
   id="line296"
   style="fill:none;stroke:#001eff" />
<line
   fill="none"
   stroke="#001EFF"
   x1="707.07501"
   y1="239.593"
   x2="630.57898"
   y2="239.593"
   id="line298"
   style="fill:none;stroke:#001eff" />
<line
   fill="none"
   stroke="#001EFF"
   x1="663.57703"
   y1="262.09201"
   x2="663.57703"
   y2="263.59201"
   id="line300"
   style="fill:none;stroke:#001eff" />
<line
   fill="none"
   stroke="#001EFF"
   x1="717.57501"
   y1="253.093"
   x2="644.078"
   y2="253.093"
   id="line302"
   style="fill:none;stroke:#001eff" />
<line
   fill="none"
   stroke="#001EFF"
   x1="644.078"
   y1="253.093"
   x2="644.078"
   y2="370.08701"
   id="line304"
   style="fill:none;stroke:#001eff" />
<line
   fill="none"
   stroke="#001EFF"
   x1="644.078"
   y1="370.08701"
   x2="692.07599"
   y2="370.08701"
   id="line306"
   style="fill:none;stroke:#001eff" />
<line
   fill="none"
   stroke="#001EFF"
   x1="692.07599"
   y1="370.08701"
   x2="692.07599"
   y2="353.28601"
   id="line308"
   style="fill:none;stroke:#001eff" />
<line
   fill="none"
   stroke="#001EFF"
   x1="599.08099"
   y1="422.58401"
   x2="597.58099"
   y2="422.58401"
   id="line310"
   style="fill:none;stroke:#001eff" />
<line
   fill="none"
   stroke="#001EFF"
   x1="630.57898"
   y1="239.593"
   x2="630.57898"
   y2="392.586"
   id="line312"
   style="fill:none;stroke:#001eff" />
<line
   fill="none"
   stroke="#001EFF"
   x1="630.57898"
   y1="392.586"
   x2="722.07397"
   y2="392.586"
   id="line314"
   style="fill:none;stroke:#001eff" />
<line
   fill="none"
   stroke="#001EFF"
   x1="722.07397"
   y1="392.586"
   x2="722.07397"
   y2="359.58701"
   id="line316"
   style="fill:none;stroke:#001eff" />
<text
   transform="matrix(0,1,-1,0,0,0)"
   id="text318"
   style="font-size:21px;font-family:Bitstream Vera Sans, sans-serif"
   x="165.79599"
   y="-75.114349">BBO</text>










<line
   x1="220.297"
   y1="66.599998"
   x2="451.48001"
   y2="29.605"
   id="line320"
   style="fill:none;stroke:#f20000;stroke-width:3;stroke-miterlimit:4;stroke-dasharray:none" />
<rect
   width="33.507"
   height="8.8280001"
   x="39.82"
   y="103.19"
   id="rect322"
   style="fill:#df1000" />
<rect
   width="31.083"
   height="9.4510002"
   x="41.523998"
   y="144.64799"
   id="rect324"
   style="fill:#00ffff;stroke:#00ffff" />
<rect
   width="40.249001"
   height="99.883003"
   x="0.64399999"
   y="77.649002"
   id="rect326"
   style="fill:#00ffff;stroke:#00ffff" />






<path
   d="M 544.95317,295.4437 544.17915,132.43562"
   id="path11593"
   style="fill:none;stroke:#ff0000;stroke-width:3;stroke-linecap:butt;stroke-linejoin:miter;stroke-miterlimit:4;stroke-opacity:1;stroke-dasharray:none;stroke-dashoffset:1.20119999000000011" /><path
   d="M 420.58481,427.49047 540.28991,294.38648"
   id="path18675"
   style="fill:none;stroke:#00f3ff;stroke-width:2.99999952;stroke-linecap:butt;stroke-linejoin:miter;stroke-miterlimit:4;stroke-opacity:1;stroke-dasharray:none;stroke-dashoffset:1.25719999"
   inkscape:connector-curvature="0" /><text
   x="52.913437"
   y="-130.06195"
   id="text3173"
   xml:space="preserve"
   style="font-size:16px;font-style:normal;font-weight:normal;line-height:125%;letter-spacing:0px;word-spacing:0px;fill:#000000;fill-opacity:1;stroke:none;font-family:Bitstream Vera Sans, sans-serif"
   sodipodi:linespacing="125%"
   transform="matrix(0,1,-1,0,0,0)"><tspan
     x="52.913437"
     y="-130.06195"
     id="tspan3175">Glan-Thompson prism</tspan></text>








<text
   x="301.14505"
   y="225.57253"
   id="text3177"
   xml:space="preserve"
   style="font-size:16px;font-style:normal;font-weight:normal;line-height:125%;letter-spacing:0px;word-spacing:0px;fill:#000000;fill-opacity:1;stroke:none;font-family:Bitstream Vera Sans,sans-serif"><tspan
     x="301.14505"
     y="225.57253"
     id="tspan3179">PS</tspan></text>








<text
   xml:space="preserve"
   style="font-size:18px;font-style:normal;font-weight:normal;line-height:125%;letter-spacing:0px;word-spacing:0px;fill:#000000;fill-opacity:1;stroke:none;font-family:Bitstream Vera Sans,sans-serif;-inkscape-font-specification:Bitstream Vera Sans;font-stretch:normal;font-variant:normal;text-anchor:start;text-align:start;writing-mode:lr"
   x="554.62"
   y="473.69238"
   id="text3162"
   sodipodi:linespacing="125%"><tspan
     sodipodi:role="line"
     id="tspan3164"
     x="554.62"
     y="473.69238">M</tspan></text>







<text
   xml:space="preserve"
   style="font-size:16px;font-style:normal;font-weight:normal;line-height:125%;letter-spacing:0px;word-spacing:0px;fill:#000000;fill-opacity:1;stroke:none;font-family:Bitstream Vera Sans,sans-serif"
   x="659.87634"
   y="185.4519"
   id="text3166"
   sodipodi:linespacing="125%"><tspan
     sodipodi:role="line"
     id="tspan3168"
     x="659.87634"
     y="185.4519">M</tspan></text>







<text
   xml:space="preserve"
   style="font-size:16px;font-style:normal;font-weight:normal;line-height:125%;letter-spacing:0px;word-spacing:0px;fill:#000000;fill-opacity:1;stroke:none;font-family:Bitstream Vera Sans,sans-serif"
   x="570.00366"
   y="476.93103"
   id="text3170"
   sodipodi:linespacing="125%"><tspan
     sodipodi:role="line"
     id="tspan3172"
     x="570.00366"
     y="476.93103">a</tspan></text>







<text
   xml:space="preserve"
   style="font-size:16px;font-style:normal;font-weight:normal;line-height:125%;letter-spacing:0px;word-spacing:0px;fill:#000000;fill-opacity:1;stroke:none;font-family:Bitstream Vera Sans,sans-serif"
   x="673.64062"
   y="192.73889"
   id="text3174"
   sodipodi:linespacing="125%"><tspan
     sodipodi:role="line"
     id="tspan3176"
     x="673.64062"
     y="192.73889">b</tspan></text>





















<text
   xml:space="preserve"
   style="font-size:16px;font-style:normal;font-weight:normal;line-height:125%;letter-spacing:0px;word-spacing:0px;fill:#000000;fill-opacity:1;stroke:none;font-family:Bitstream Vera Sans,sans-serif"
   x="502.80151"
   y="183.0229"
   id="text3186"
   sodipodi:linespacing="125%"><tspan
     sodipodi:role="line"
     id="tspan3188"
     x="502.80151"
     y="183.0229">BS</tspan></text>







<g
   id="g4006"><text
     sodipodi:linespacing="125%"
     id="text3182"
     y="336.85913"
     x="434.7897"
     style="font-size:16px;font-style:normal;font-weight:normal;line-height:125%;letter-spacing:0px;word-spacing:0px;fill:#000000;fill-opacity:1;stroke:none;font-family:Bitstream Vera Sans,sans-serif"
     xml:space="preserve"><tspan
       y="336.85913"
       x="434.7897"
       id="tspan3184"
       sodipodi:role="line">BS</tspan></text>
<text
     sodipodi:linespacing="125%"
     id="text3190"
     y="342.52679"
     x="455.841"
     style="font-size:16px;font-style:normal;font-weight:normal;line-height:125%;letter-spacing:0px;word-spacing:0px;fill:#000000;fill-opacity:1;stroke:none;font-family:Bitstream Vera Sans,sans-serif"
     xml:space="preserve"><tspan
       y="342.52679"
       x="455.841"
       id="tspan3192"
       sodipodi:role="line">a</tspan></text>
</g>






<text
   xml:space="preserve"
   style="font-size:16px;font-style:normal;font-weight:normal;line-height:125%;letter-spacing:0px;word-spacing:0px;fill:#000000;fill-opacity:1;stroke:none;font-family:Bitstream Vera Sans,sans-serif"
   x="522.2818"
   y="190.30989"
   id="text3194"
   sodipodi:linespacing="125%"><tspan
     sodipodi:role="line"
     id="tspan3196"
     x="522.2818"
     y="190.30989">b</tspan></text>







<g
   id="g4000"
   transform="translate(4,4)"><text
     sodipodi:linespacing="125%"
     id="text3178"
     y="335.23978"
     x="573.24231"
     style="font-size:16px;font-style:normal;font-weight:normal;line-height:125%;letter-spacing:0px;word-spacing:0px;fill:#000000;fill-opacity:1;stroke:none;font-family:Bitstream Vera Sans, sans-serif"
     xml:space="preserve"><tspan
       y="335.23978"
       x="573.24231"
       id="tspan3180"
       sodipodi:role="line">BS</tspan></text>
<text
     sodipodi:linespacing="125%"
     id="text3198"
     y="340.09775"
     x="593.48389"
     style="font-size:16px;font-style:normal;font-weight:normal;line-height:125%;letter-spacing:0px;word-spacing:0px;fill:#000000;fill-opacity:1;stroke:none;font-family:Bitstream Vera Sans, sans-serif"
     xml:space="preserve"><tspan
       y="340.09775"
       x="593.48389"
       id="tspan3200"
       sodipodi:role="line">c</tspan></text>
</g>






<path
   style="fill:none;stroke:#000000;stroke-width:2;stroke-linecap:butt;stroke-linejoin:miter;stroke-opacity:1;marker-end:none;marker-start:url(#Arrow1Mstart);stroke-miterlimit:4;stroke-dasharray:none"
   d="m 480.93979,6.8565828 c 7.45661,38.9749242 7.28827,38.1829542 7.28827,38.1829542"
   id="path3202"
   inkscape:connector-curvature="0" /><text
   xml:space="preserve"
   style="font-size:16px;font-style:normal;font-weight:normal;line-height:125%;letter-spacing:0px;word-spacing:0px;fill:#000000;fill-opacity:1;stroke:none;font-family:Bitstream Vera Sans, sans-serif"
   x="489.11118"
   y="19.650942"
   id="text3204"
   sodipodi:linespacing="125%"><tspan
     sodipodi:role="line"
     id="tspan3206"
     x="489.11118"
     y="19.650942">x</tspan></text>







<text
   xml:space="preserve"
   style="font-size:12px;font-style:normal;font-variant:normal;font-weight:normal;font-stretch:normal;text-align:start;line-height:125%;letter-spacing:0px;word-spacing:0px;writing-mode:lr-tb;text-anchor:start;fill:#000000;fill-opacity:1;stroke:none;font-family:Bitstream Vera Sans, sans-serif;-inkscape-font-specification:Sans"
   x="3.6920333"
   y="314.3544"
   id="text3950"
   sodipodi:linespacing="125%"><tspan
     sodipodi:role="line"
     id="tspan3952"
     x="3.6920333"
     y="314.3544"
     style="font-size:18px;font-style:normal;font-variant:normal;font-weight:normal;font-stretch:normal;text-align:start;line-height:125%;writing-mode:lr-tb;text-anchor:start;font-family:Bitstream Vera Sans, sans-serif;-inkscape-font-specification:Bitstream Vera Sans">Laser beam</tspan></text>




<g
   id="g58">
	<g
   id="g60">
		<polygon
   points="478.87,134.682 487.825,146.285 487.799,146.52 488.479,146.554 489.827,135.238 489.03,135.198 489.03,135.198"
   id="polygon62"
   style="fill:#070101" />
		<polygon
   points="487.799,146.52 487.825,146.285 478.87,134.682 468.635,134.161 468.521,135.106 467.284,145.476 467.284,145.476"
   id="polygon64"
   style="fill:#070101" />
		<polygon
   points="467.284,145.476 468.521,135.106 459.38,123.257 449.766,122.767 449.766,122.767"
   id="polygon66"
   style="fill:#070101" />
		<polygon
   points="489.03,135.198 472.206,113.386 470.957,123.845 470.496,123.821 478.87,134.682 478.87,134.682"
   id="polygon68"
   style="fill:#070101" />
		<polygon
   points="470.957,123.845 472.206,113.386 472.307,112.527 451.115,111.45 460.256,123.3 470.496,123.821 470.496,123.821"
   id="polygon70"
   style="fill:#070101" />
		<polygon
   points="460.256,123.3 451.115,111.45 451.004,112.396 459.38,123.257 459.38,123.257"
   id="polygon72"
   style="fill:#070101" />
		<polygon
   points="459.38,123.257 451.004,112.396 449.766,122.767 449.766,122.767"
   id="polygon74"
   style="fill:#070101" />
		<polygon
   points="459.545,122.92 468.686,134.771 468.359,135.44 459.22,123.591 450.839,112.731 451.166,112.063 451.166,112.063"
   id="polygon76"
   style="fill:#000003" />
		<path
   d="m 450.17,123.325 17.521,22.711 c 0.048,0.061 0.048,0.186 0.006,0.278 -0.046,0.091 -0.121,0.118 -0.168,0.057 l -17.521,-22.71 c -0.048,-0.061 -0.049,-0.186 -0.006,-0.278 0.046,-0.093 0.121,-0.119 0.168,-0.058"
   id="path78" />
		<path
   d="m 472.168,113.068 0.117,0.15 16.828,21.813 0.574,0.745 c 0.049,0.063 0.051,0.186 0.006,0.278 -0.044,0.092 -0.119,0.118 -0.166,0.059 l -0.578,-0.747 -16.827,-21.811 -0.117,-0.151 c -0.045,-0.061 -0.048,-0.186 -0.004,-0.279 0.045,-0.093 0.12,-0.119 0.167,-0.057 z"
   id="path80" />
		<path
   d="m 470.387,123.409 0.189,0.245 8.376,10.86 8.956,11.607 c 0.046,0.061 0.05,0.184 0.004,0.276 -0.045,0.092 -0.12,0.117 -0.167,0.056 l -8.956,-11.606 -8.374,-10.859 -0.19,-0.242 c -0.047,-0.061 -0.049,-0.187 -0.004,-0.277 0.045,-0.094 0.119,-0.119 0.166,-0.06 z"
   id="path82" />
	</g>
</g><g
   id="g84">
	<g
   id="g86">
		<polygon
   points="549.87,125.682 558.825,137.285 558.799,137.52 559.479,137.554 560.827,126.238 560.03,126.198 560.03,126.198"
   id="polygon88"
   style="fill:#070101" />
		<polygon
   points="558.799,137.52 558.825,137.285 549.87,125.682 539.635,125.161 539.521,126.106 538.284,136.476 538.284,136.476"
   id="polygon90"
   style="fill:#070101" />
		<polygon
   points="538.284,136.476 539.521,126.106 530.38,114.257 520.766,113.767 520.766,113.767"
   id="polygon92"
   style="fill:#070101" />
		<polygon
   points="560.03,126.198 543.206,104.386 541.957,114.845 541.496,114.821 549.87,125.682 549.87,125.682"
   id="polygon94"
   style="fill:#070101" />
		<polygon
   points="541.957,114.845 543.206,104.386 543.307,103.527 522.115,102.45 531.256,114.3 541.496,114.821 541.496,114.821"
   id="polygon96"
   style="fill:#070101" />
		<polygon
   points="531.256,114.3 522.115,102.45 522.004,103.396 530.38,114.257 530.38,114.257"
   id="polygon98"
   style="fill:#070101" />
		<polygon
   points="530.38,114.257 522.004,103.396 520.766,113.767 520.766,113.767"
   id="polygon100"
   style="fill:#070101" />
		<polygon
   points="530.545,113.92 539.686,125.771 539.359,126.44 530.22,114.591 521.839,103.731 522.166,103.063 522.166,103.063"
   id="polygon102"
   style="fill:#000003" />
		<path
   d="m 521.17,114.325 17.521,22.71 c 0.048,0.062 0.048,0.187 0.006,0.278 -0.046,0.091 -0.121,0.118 -0.168,0.057 l -17.521,-22.71 c -0.048,-0.061 -0.049,-0.186 -0.006,-0.278 0.046,-0.092 0.121,-0.118 0.168,-0.057"
   id="path104" />
		<path
   d="m 543.168,104.068 0.117,0.15 16.828,21.813 0.575,0.745 c 0.048,0.063 0.05,0.186 0.005,0.278 -0.044,0.092 -0.119,0.118 -0.166,0.059 l -0.578,-0.747 -16.827,-21.811 -0.117,-0.151 c -0.045,-0.061 -0.048,-0.186 -0.004,-0.279 0.045,-0.093 0.12,-0.119 0.167,-0.057 z"
   id="path106" />
		<path
   d="m 541.387,114.409 0.189,0.245 8.376,10.86 8.956,11.607 c 0.046,0.061 0.05,0.184 0.004,0.276 -0.045,0.092 -0.12,0.116 -0.167,0.056 l -8.956,-11.606 -8.374,-10.859 -0.19,-0.242 c -0.047,-0.061 -0.049,-0.187 -0.004,-0.277 0.045,-0.094 0.119,-0.119 0.166,-0.06 z"
   id="path108" />
	</g>
</g><g
   id="g139"
   transform="translate(0.87585687,-6.8566062)">
	<g
   id="g141">
		<polygon
   points="425.915,468.386 425.755,468.602 426.524,468.86 434.361,458.454 433.458,458.15 433.458,458.15 421.93,454.27"
   id="polygon143"
   style="fill:#070101" />
		<polygon
   points="425.915,468.386 421.93,454.27 410.316,450.359 409.661,451.229 402.479,460.765 402.479,460.765 425.755,468.602"
   id="polygon145"
   style="fill:#070101" />
		<polygon
   points="409.661,451.229 405.596,436.814 394.688,433.141 394.688,433.141 402.479,460.765"
   id="polygon147"
   style="fill:#070101" />
		<polygon
   points="425.979,431.617 418.73,441.235 418.209,441.06 421.93,454.27 421.93,454.27 433.458,458.15"
   id="polygon149"
   style="fill:#070101" />
		<polygon
   points="425.979,431.617 426.569,430.827 402.524,422.733 406.59,437.147 418.209,441.06 418.209,441.06 418.73,441.235"
   id="polygon151"
   style="fill:#070101" />
		<polygon
   points="402.524,422.733 401.872,423.604 405.596,436.814 405.596,436.814 406.59,437.147"
   id="polygon153"
   style="fill:#070101" />
		<polygon
   points="401.872,423.604 394.688,433.141 394.688,433.141 405.596,436.814"
   id="polygon155"
   style="fill:#070101" />
		<polygon
   points="410.037,450.962 409.287,451.495 405.226,437.081 401.495,423.87 402.244,423.338 402.244,423.338 405.973,436.547"
   id="polygon157"
   style="fill:#000003" />
		<path
   d="m 394.849,433.813 7.791,27.625 c 0.022,0.074 -0.046,0.193 -0.146,0.269 -0.103,0.073 -0.206,0.073 -0.228,-10e-4 l -7.791,-27.626 c -0.021,-0.073 0.047,-0.194 0.147,-0.27 0.105,-0.073 0.206,-0.074 0.227,0.003"
   id="path159"
   inkscape:connector-curvature="0" />
		<path
   d="m 426.108,431.3 0.054,0.184 7.484,26.533 0.257,0.906 c 0.021,0.076 -0.046,0.194 -0.148,0.27 -0.103,0.072 -0.204,0.072 -0.227,0.001 l -0.257,-0.91 -7.485,-26.531 -0.052,-0.186 c -0.02,-0.073 0.047,-0.193 0.148,-0.269 0.104,-0.073 0.206,-0.073 0.226,0.002 z"
   id="path161"
   inkscape:connector-curvature="0" />
		<path
   d="m 418.311,440.627 0.084,0.298 3.725,13.21 3.984,14.121 c 0.02,0.073 -0.045,0.193 -0.148,0.268 -0.104,0.071 -0.205,0.07 -0.227,-0.004 l -3.982,-14.118 -3.723,-13.209 -0.088,-0.295 c -0.021,-0.074 0.048,-0.196 0.149,-0.27 0.103,-0.074 0.202,-0.072 0.226,-10e-4 z"
   id="path163"
   inkscape:connector-curvature="0" />
	</g>
</g><g
   id="g24">
	<g
   id="g26">
		<polygon
   points="466.134,41.278 473.048,52.403 473.193,52.403 473.193,53.138 466.134,53.138 466.134,52.278 466.134,52.278"
   id="polygon28"
   style="fill:#070101" />
		<polygon
   points="473.193,52.403 473.048,52.403 466.134,41.278 466.134,30.198 466.724,30.198 473.193,30.198 473.193,30.198"
   id="polygon30"
   style="fill:#070101" />
		<polygon
   points="473.193,30.198 466.724,30.198 459.663,18.842 459.663,8.433 459.663,8.433"
   id="polygon32"
   style="fill:#070101" />
		<polygon
   points="466.134,52.278 453.138,31.373 459.663,31.373 459.663,30.873 466.134,41.278 466.134,41.278"
   id="polygon34"
   style="fill:#070101" />
		<polygon
   points="459.663,31.373 453.138,31.373 452.604,31.373 452.604,8.433 459.663,19.788 459.663,30.873 459.663,30.873"
   id="polygon36"
   style="fill:#070101" />
		<polygon
   points="459.663,19.788 452.604,8.433 453.193,8.433 459.663,18.842 459.663,18.842"
   id="polygon38"
   style="fill:#070101" />
		<polygon
   points="459.663,18.842 453.193,8.433 459.663,8.433 459.663,8.433"
   id="polygon40"
   style="fill:#070101" />
		<polygon
   points="459.45,18.974 466.511,30.33 466.936,30.066 459.876,18.71 453.405,8.3 452.98,8.565 452.98,8.565"
   id="polygon42"
   style="fill:#000003" />
		<path
   d="m 459.997,8.938 13.53,21.765 c 0.035,0.059 0.112,0.077 0.172,0.04 0.059,-0.036 0.077,-0.113 0.04,-0.172 L 460.209,8.806 c -0.036,-0.059 -0.113,-0.077 -0.172,-0.041 -0.058,0.038 -0.077,0.115 -0.04,0.173"
   id="path44" />
		<path
   d="m 452.942,31.293 0.09,0.145 12.995,20.905 0.443,0.715 c 0.037,0.059 0.113,0.077 0.172,0.041 0.06,-0.037 0.077,-0.114 0.041,-0.172 l -0.444,-0.715 -12.995,-20.905 -0.089,-0.145 c -0.037,-0.059 -0.114,-0.077 -0.173,-0.04 -0.058,0.036 -0.077,0.113 -0.04,0.171 z"
   id="path46" />
		<path
   d="m 459.411,30.704 0.146,0.234 6.472,10.405 6.915,11.125 c 0.035,0.059 0.112,0.077 0.172,0.041 0.059,-0.036 0.076,-0.114 0.04,-0.172 l -6.915,-11.125 -6.471,-10.405 -0.146,-0.235 c -0.035,-0.059 -0.113,-0.077 -0.172,-0.041 -0.057,0.037 -0.076,0.114 -0.041,0.173 z"
   id="path48" />
	</g>
</g><polygon
   points="585.718,297.604 500.419,296.791 496.438,313.288 581.738,314.1 585.718,297.604"
   id="rect3398_1_"
   style="fill:#7fff00;fill-opacity:0.53289998;stroke:#000000;stroke-width:1.00979996"
   transform="matrix(0.93969262,0.34202015,-0.34202015,0.93969262,137.09952,-167.63894)" /><path
   style="fill:none;stroke:#000000;stroke-width:2;stroke-linecap:butt;stroke-linejoin:miter;stroke-miterlimit:4;stroke-opacity:1;stroke-dasharray:none;marker-start:url(#Arrow1Mstart)"
   d="m 18.86693,180.52713 8.37078,119.70769"
   id="path8886"
   inkscape:path-effect="#path-effect8888"
   inkscape:original-d="m 18.86693,180.52713 8.37078,119.70769"
   inkscape:connector-curvature="0" /><g
   id="g3996"
   transform="translate(-41.206001,-107.9)"><rect
     y="195.79401"
     x="134"
     height="75"
     width="33"
     id="rect3194"
     style="color:#000000;fill:none;stroke:#000000;stroke-width:1;stroke-miterlimit:4;stroke-opacity:1;stroke-dasharray:none;marker:none;visibility:visible;display:inline;overflow:visible;enable-background:accumulate" /><path
     inkscape:connector-curvature="0"
     inkscape:original-d="m 167,195 c -32.5,75 -32.5,75 -32.5,75"
     inkscape:path-effect="#path-effect3994"
     id="path3992"
     d="m 167,195 -32.5,75"
     style="fill:none;stroke:#000000;stroke-width:1px;stroke-linecap:butt;stroke-linejoin:miter;stroke-opacity:1" /></g></svg>